#format: frame checksums
#version: 1
#hash: MD5
#tb 0: 1001/30000
#stream#, dts,        pts, duration,     size, hash
0,          0,          0,        1,    60600, c4a13df44e66f06961dd72fc990439e9
0,          1,          1,        1,    60600, 81c73b8d3806ad96af8f422914a253f8
0,          2,          2,        1,    60600, 05f77526125e802be9cb306e375ded6e
0,          3,          3,        1,    60600, ab2e224840ff89abec2c675a23a73094
0,          4,          4,        1,    60600, c30f58f88819eb57102678b169e15188
0,          5,          5,        1,    60600, 33e5e2799eb4a9c548c8372fd6769db9
0,          6,          6,        1,    60600, fa53c1c7e60bd1d00335af542ec69ed7
0,          7,          7,        1,    60600, 534cafe658af10a314d6d084e55b3620
0,          8,          8,        1,    60600, 502529e4fbecc8b890abf665fa21f53c
0,          9,          9,        1,    60600, bf1f73c6e77370bc51a770c8ae87bd12
